<?xml version="1.0" encoding="UTF-8" standalone="no"?>
<svg
   xmlns:dc="http://purl.org/dc/elements/1.1/"
   xmlns:cc="http://creativecommons.org/ns#"
   xmlns:rdf="http://www.w3.org/1999/02/22-rdf-syntax-ns#"
   xmlns:svg="http://www.w3.org/2000/svg"
   xmlns="http://www.w3.org/2000/svg"
   xmlns:sodipodi="http://sodipodi.sourceforge.net/DTD/sodipodi-0.dtd"
   xmlns:inkscape="http://www.inkscape.org/namespaces/inkscape"
   width="84mm"
   height="39mm"
   viewBox="0 0 84 39"
   version="1.1"
   id="svg8"
   inkscape:version="1.0.1 (3bc2e813f5, 2020-09-07)"
   sodipodi:docname="img2.svg"
   inkscape:export-filename="C:\xampp\htdocs\cs\js12\img\img2.png"
   inkscape:export-xdpi="96"
   inkscape:export-ydpi="96">
  <defs
     id="defs2" />
  <sodipodi:namedview
     id="base"
     pagecolor="#ffffff"
     bordercolor="#666666"
     borderopacity="1.0"
     inkscape:pageopacity="0"
     inkscape:pageshadow="2"
     inkscape:zoom="1.5219183"
     inkscape:cx="83.633403"
     inkscape:cy="85.780079"
     inkscape:document-units="mm"
     inkscape:current-layer="layer1"
     inkscape:document-rotation="0"
     showgrid="false"
     inkscape:window-width="1366"
     inkscape:window-height="705"
     inkscape:window-x="-8"
     inkscape:window-y="-8"
     inkscape:window-maximized="1" />
  <metadata
     id="metadata5">
    <rdf:RDF>
      <cc:Work
         rdf:about="">
        <dc:format>image/svg+xml</dc:format>
        <dc:type
           rdf:resource="http://purl.org/dc/dcmitype/StillImage" />
        <dc:title></dc:title>
      </cc:Work>
    </rdf:RDF>
  </metadata>
  <g
     inkscape:label="Layer 1"
     inkscape:groupmode="layer"
     id="layer1">
    <g
       id="g873"
       transform="translate(-10.391371,-8.8094998)">
      <path
         id="rect16"
         style="fill:#cccccc;stroke:#333333;stroke-width:0.264583"
         d="M 11.339285,9.8273821 H 93.738089 V 46.86905 H 11.339285 Z" />
      <g
         aria-label="Bitmap x SVG"
         transform="scale(0.81169227,1.231994)"
         id="text20"
         style="font-style:normal;font-weight:normal;font-size:15.0495px;line-height:1.25;font-family:sans-serif;fill:#000000;fill-opacity:1;stroke:none;stroke-width:0.376238">
        <path
           d="m 26.100195,22.975007 q 0.446484,0.32246 0.663525,0.706933 0.223242,0.378272 0.223242,0.818555 0,0.713135 -0.551904,1.314648 -0.675928,0.744141 -2.033984,0.806153 -0.750342,0.03721 -2.108399,0.03721 h -3.06958 l 0.0062,-0.291455 0.0124,-1.203028 0.0186,-2.368847 -0.0248,-2.579688 -0.0124,-2.021582 h 3.323828 q 1.246436,0 1.711524,0.04341 0.471289,0.03721 0.967383,0.192237 0.527099,0.167431 0.985986,0.489892 0.458887,0.322461 0.713135,0.706934 0.396875,0.601513 0.396875,1.345654 0,0.669727 -0.328662,1.209229 -0.328663,0.539501 -0.892969,0.79375 z m -0.502295,0.16123 q -0.26665,0.05581 -0.496094,0.05581 -0.489892,0 -0.79375,-0.161231 -0.297656,-0.16123 -0.297656,-0.42168 0,-0.142627 0.09922,-0.142627 0.07441,0 0.204638,0.06201 0.427881,0.217041 0.930176,0.217041 0.911572,0 1.37666,-0.719336 0.297656,-0.452685 0.297656,-1.035595 0,-0.886768 -0.68833,-1.519288 Q 25.740527,19.012458 25.058398,18.807819 24.38247,18.60318 23.359277,18.60318 h -0.341065 l -0.03721,3.720704 0.03721,3.925341 0.558106,0.0062 q 0.923974,0 1.438672,-0.09922 0.514697,-0.10542 0.855761,-0.353467 0.706934,-0.520899 0.706934,-1.314649 0,-0.403076 -0.248047,-0.737939 -0.241846,-0.341064 -0.731738,-0.613916 z"
           style="font-style:normal;font-variant:normal;font-weight:normal;font-stretch:normal;font-size:12.7px;font-family:Broadway;-inkscape-font-specification:Broadway;fill:#000000;stroke-width:0.376238"
           id="path940" />
        <path
           d="m 29.907715,17.716413 q 1.637109,0 1.637109,0.855762 0,0.415478 -0.434082,0.651123 -0.427881,0.229443 -1.209229,0.229443 -1.556494,0 -1.556494,-0.880566 0,-0.84336 1.562696,-0.855762 z m 1.606103,2.17041 v 0.179834 l -0.0124,0.967383 -0.0124,1.500683 -0.0186,2.282032 0.02481,1.283642 0.0124,0.558106 h -3.187402 l 0.03101,-2.282032 0.0186,-2.01538 -0.0124,-1.060401 -0.0186,-1.178222 0.0062,-0.235645 z"
           style="font-style:normal;font-variant:normal;font-weight:normal;font-stretch:normal;font-size:12.7px;font-family:Broadway;-inkscape-font-specification:Broadway;fill:#000000;stroke-width:0.376238"
           id="path942" />
        <path
           d="m 36.400342,17.704011 -0.06821,2.002978 -0.0062,0.192236 q 0.539502,0 0.979785,-0.04341 0.07441,-0.0062 0.130224,-0.0062 0.272852,0 0.272852,0.248047 0,0.229443 -0.285254,0.229443 -0.08682,0 -0.217041,-0.0124 -0.489893,-0.03721 -0.700732,-0.03721 h -0.179834 l -0.0062,1.203027 0.0248,2.412256 0.0186,1.289844 q 0,0.452685 0.06821,0.632519 0.06821,0.179834 0.235644,0.179834 0.223242,0 0.47749,-0.260449 0.248047,-0.260449 0.390674,-0.638721 0.130225,-0.359668 0.310059,-0.359668 0.21084,0 0.21084,0.235645 0,0.235644 -0.21084,0.589111 -0.21084,0.347266 -0.508496,0.607715 -0.731739,0.638721 -1.897559,0.638721 -1.097607,0 -1.699121,-0.663526 Q 33.429974,25.80894 33.312152,25.399663 33.19433,24.984184 33.19433,24.252446 V 23.78736 l 0.0062,-1.308447 v -2.22002 q -0.08682,-0.0062 -0.124023,-0.0062 -0.06201,0 -0.248047,0.0124 -0.15503,0.0124 -0.260449,0.0124 -0.303858,0 -0.303858,-0.229444 0,-0.223242 0.291455,-0.223242 0.136426,0 0.192237,0.0062 l 0.452685,0.03101 v -0.700732 q 1.835547,-0.663525 3.199805,-1.457275 z"
           style="font-style:normal;font-variant:normal;font-weight:normal;font-stretch:normal;font-size:12.7px;font-family:Broadway;-inkscape-font-specification:Broadway;fill:#000000;stroke-width:0.376238"
           id="path944" />
        <path
           d="m 46.539257,20.891413 q 0.806153,-0.620117 1.500684,-0.892969 0.700732,-0.279053 1.475879,-0.279053 1.420068,0 1.978174,0.911573 0.16123,0.272851 0.223242,0.632519 0.06201,0.353467 0.06201,1.054199 l -0.0248,1.63711 v 0.384472 l 0.03101,2.064991 0.0062,0.254248 h -3.181201 l 0.0248,-1.959571 0.03101,-1.971972 -0.0062,-0.799951 q -0.0062,-0.440284 0,-0.514698 0.0062,-0.489892 -0.10542,-0.675927 -0.111621,-0.186036 -0.403076,-0.186036 -0.310059,0 -0.682129,0.179834 -0.365869,0.179834 -0.79375,0.545703 0.03101,0.241846 0.03101,0.694532 l -0.0124,1.550293 -0.0124,1.742529 q 0,0.768945 0.03101,1.395264 h -3.175 l 0.0124,-1.351856 0.0186,-2.914551 q 0,-1.438671 -0.03721,-1.5875 -0.06821,-0.26665 -0.446484,-0.26665 -0.285254,0 -0.644922,0.179834 -0.353467,0.173633 -0.787549,0.533301 l -0.02481,2.623095 0.03101,2.784327 h -3.181201 v -0.248047 l 0.0124,-1.128614 0.0062,-1.53789 0.0062,-1.488281 -0.02481,-2.368848 h 3.175 v 0.868164 q 0.694531,-0.520898 1.382861,-0.775146 0.694531,-0.26045 1.382862,-0.26045 1.035595,0 1.668115,0.520899 0.254248,0.204638 0.452685,0.651123 z"
           style="font-style:normal;font-variant:normal;font-weight:normal;font-stretch:normal;font-size:12.7px;font-family:Broadway;-inkscape-font-specification:Broadway;fill:#000000;stroke-width:0.376238"
           id="path946" />
        <path
           d="m 57.546339,22.528522 v -0.756543 q -0.0062,-0.787549 -0.02481,-0.967383 -0.0186,-0.179834 -0.111621,-0.322461 -0.223242,-0.347265 -1.041797,-0.347265 -1.265039,0 -1.953369,0.79375 -0.279053,0.322461 -0.471289,0.322461 -0.142627,0 -0.248047,-0.09922 -0.10542,-0.09922 -0.10542,-0.229443 0,-0.390674 0.923975,-0.806153 0.880566,-0.396875 2.27583,-0.396875 2.294434,0 3.237012,0.694532 0.409277,0.303857 0.5333,0.682128 0.124024,0.378272 0.124024,1.333252 v 2.461866 q -0.02481,0.682129 0.03721,1.029394 0.06821,0.341065 0.297656,0.73794 H 57.546339 V 26.00738 q -0.570508,0.390673 -1.134814,0.589111 -0.558106,0.198437 -1.103809,0.198437 -0.923975,0 -1.643311,-0.539502 -0.936377,-0.706933 -0.936377,-1.835546 0,-0.998389 0.756543,-1.612305 0.880567,-0.725537 2.182813,-0.725537 0.533301,0 0.942578,0.09922 0.409277,0.09302 0.936377,0.347265 z m 0.0062,0.446485 q -0.781348,-0.390674 -1.209228,-0.390674 -0.359668,0 -0.471289,0.285254 -0.06201,0.155029 -0.06201,0.89917 v 1.48208 q 0.0062,0.489892 0.03101,0.595312 0.06201,0.285254 0.421679,0.285254 0.285254,0 0.63252,-0.167432 0.353467,-0.173632 0.644922,-0.452685 z"
           style="font-style:normal;font-variant:normal;font-weight:normal;font-stretch:normal;font-size:12.7px;font-family:Broadway;-inkscape-font-specification:Broadway;fill:#000000;stroke-width:0.376238"
           id="path948" />
        <path
           d="m 62.091797,19.886823 h 3.168799 l -0.0186,0.812353 q 0.626318,-0.539501 1.147216,-0.756542 0.520899,-0.223243 1.147217,-0.223243 1.283643,0 2.083594,0.954981 0.719336,0.855762 0.719336,2.176611 0,1.407666 -0.824756,2.313037 -0.762744,0.837158 -1.90376,0.837158 -0.601514,0 -1.196826,-0.248047 -0.595313,-0.254248 -1.184424,-0.756542 l 0.0062,0.229443 0.0062,0.812353 0.0124,0.675928 0.0062,0.229443 h -3.168799 l 0.0062,-1.767333 0.0124,-1.643311 -0.0186,-3.429248 z m 3.150196,1.370459 v 3.237012 q 0.452685,0.421679 0.812353,0.63872 0.359668,0.21084 0.626318,0.21084 0.248047,0 0.291455,-0.241846 0.0124,-0.08062 0.0186,-0.837158 v -3.032373 q 0,-0.539502 -0.0186,-0.644922 -0.04341,-0.260449 -0.260449,-0.260449 -0.279053,0 -0.675928,0.254248 -0.396874,0.248047 -0.793749,0.675928 z"
           style="font-style:normal;font-variant:normal;font-weight:normal;font-stretch:normal;font-size:12.7px;font-family:Broadway;-inkscape-font-specification:Broadway;fill:#000000;stroke-width:0.376238"
           id="path950" />
        <path
           d="m 79.765135,22.609137 0.489892,0.675928 q 0.880567,1.221631 1.469678,1.95957 0.595312,0.731739 1.240234,1.413868 h -4.067968 l -1.996778,-2.759522 q -1.147216,1.153418 -2.17041,2.437061 -0.359668,0.458886 -0.527099,0.458886 -0.09302,0 -0.204639,-0.10542 -0.10542,-0.105419 -0.10542,-0.192236 0,-0.155029 0.446484,-0.564307 1.079004,-1.023193 2.300635,-2.375048 l -0.545703,-0.762744 q -1.506885,-2.108399 -2.306836,-2.90835 h 4.036963 l 1.69292,2.393652 q 1.314648,-1.457275 1.909961,-2.207617 0.279052,-0.359668 0.427881,-0.359668 0.09922,0 0.204638,0.10542 0.111621,0.10542 0.111621,0.198438 0,0.130224 -0.347265,0.440283 -0.241846,0.223242 -0.979785,0.998388 z"
           style="font-style:normal;font-variant:normal;font-weight:normal;font-stretch:normal;font-size:12.7px;font-family:Broadway;-inkscape-font-specification:Broadway;fill:#000000;stroke-width:0.376238"
           id="path952" />
        <path
           d="m 86.667039,25.219831 q 0.111621,0 0.260449,0.167431 0.465088,0.508496 1.134815,0.818555 0.675927,0.303857 1.333252,0.303857 0.725537,0 0.725537,-0.440283 0,-0.279052 -0.254248,-0.626318 -0.254248,-0.353467 -1.21543,-1.389063 -1.209228,-1.308447 -1.612305,-1.940966 -0.5333,-0.837159 -0.5333,-1.593701 0,-1.141016 1.016992,-1.866553 0.998388,-0.713135 2.461865,-0.713135 1.023193,0 1.878955,0.415479 0.322461,0.16123 0.551904,0.37207 0.235645,0.21084 0.235645,0.353467 0,0.06821 -0.06821,0.130224 -0.06201,0.05581 -0.130225,0.05581 -0.10542,0 -0.310058,-0.192237 -0.334863,-0.316259 -0.880567,-0.520898 -0.545703,-0.21084 -1.047998,-0.21084 -0.310058,0 -0.508496,0.136426 -0.192236,0.130225 -0.192236,0.341064 0,0.254248 0.241846,0.620118 0.241845,0.365869 0.818554,0.973584 1.823145,1.940966 2.232422,2.616894 0.427881,0.713135 0.427881,1.37666 0,0.564307 -0.303857,1.066602 -0.303858,0.502295 -0.84336,0.824756 -1.029394,0.613916 -2.511474,0.613916 -1.364258,0 -2.399854,-0.706934 -0.725537,-0.496094 -0.725537,-0.775146 0,-0.08062 0.06201,-0.142627 0.06821,-0.06821 0.155029,-0.06821 z"
           style="font-style:normal;font-variant:normal;font-weight:normal;font-stretch:normal;font-size:12.7px;font-family:Broadway;-inkscape-font-specification:Broadway;fill:#000000;stroke-width:0.376238"
           id="path954" />
        <path
           d="m 100.30342,23.148639 1.11001,-2.077392 q 0.82475,-1.525488 1.31465,-2.542481 0.13022,-0.272851 0.20464,-0.359668 0.0806,-0.09302 0.19223,-0.09302 0.10542,0 0.18604,0.07441 0.0806,0.06821 0.0806,0.167432 0,0.105419 -0.13022,0.334863 -0.031,0.05581 -0.062,0.10542 -0.062,0.09922 -0.16123,0.279052 l -4.588871,8.272364 -5.295801,-9.115723 h 4.347021 z"
           style="font-style:normal;font-variant:normal;font-weight:normal;font-stretch:normal;font-size:12.7px;font-family:Broadway;-inkscape-font-specification:Broadway;fill:#000000;stroke-width:0.376238"
           id="path956" />
        <path
           d="m 111.99263,22.385895 q -0.0372,1.841748 -1.17823,3.075781 -0.63872,0.68833 -1.51928,1.072803 -0.87437,0.378272 -1.81695,0.378272 -0.81855,0 -1.6123,-0.310059 -0.79375,-0.310059 -1.40767,-0.868164 -0.78755,-0.719336 -1.16582,-1.730127 -0.29765,-0.806152 -0.29765,-1.599902 0,-1.475879 0.91157,-2.678906 0.62632,-0.837159 1.5751,-1.308448 0.94878,-0.47749 1.99057,-0.47749 1.82935,0 3.1502,1.258838 0.58911,0.564307 0.58911,0.799951 0,0.08062 -0.0682,0.136426 -0.062,0.05581 -0.15503,0.05581 -0.14263,0 -0.30386,-0.217041 -1.24644,-1.655712 -3.19981,-1.655712 -0.23564,0 -0.47749,0.03101 l -0.031,4.402832 0.031,3.739307 q 0.22945,0.04341 0.46509,0.04341 0.70073,0 1.35806,-0.235644 1.66191,-0.589112 2.38745,-2.164209 0.31006,-0.663526 0.36587,-1.351856 h -3.23701 q -0.42788,-0.0124 -0.5147,-0.04341 -0.0868,-0.03101 -0.0868,-0.16123 0,-0.198438 0.29766,-0.198438 l 0.37207,0.0062 z"
           style="font-style:normal;font-variant:normal;font-weight:normal;font-stretch:normal;font-size:12.7px;font-family:Broadway;-inkscape-font-specification:Broadway;fill:#000000;stroke-width:0.376238"
           id="path958" />
      </g>
    </g>
  </g>
</svg>
